<?xml version="1.0" encoding="UTF-8"?>
<svg version="1.1" xmlns="http://www.w3.org/2000/svg" width="512" height="512">
<path d="M0 0 C2.39632831 -0.0043531 4.79265523 -0.00953823 7.1889801 -0.01548767 C12.9972276 -0.02744419 18.80542124 -0.03003661 24.61367955 -0.02768741 C29.34148078 -0.02589622 34.06926807 -0.02767096 38.79706764 -0.03191185 C39.47284813 -0.03250704 40.14862861 -0.03310223 40.84488729 -0.03371545 C42.21826619 -0.03492735 43.59164508 -0.03614149 44.96502397 -0.03735783 C57.81504021 -0.04820833 70.66503013 -0.04608301 83.51504783 -0.03997298 C95.23237341 -0.03480897 106.94961573 -0.04605009 118.66692486 -0.0650712 C130.73822364 -0.08451457 142.80948316 -0.09269408 154.88079768 -0.08894795 C161.6418242 -0.08704535 168.40277994 -0.08943056 175.16379356 -0.10366249 C181.52755292 -0.11631316 187.89114674 -0.11422865 194.25490379 -0.1012516 C196.57749998 -0.09890178 198.90010808 -0.1015626 201.22269058 -0.10987473 C244.31047067 -0.25284106 282.09874014 14.03185124 313.2277832 44.2746582 C315.70462678 46.83654362 317.98528589 49.50620203 320.2277832 52.2746582 C320.98704102 53.19633789 321.74629883 54.11801758 322.52856445 55.06762695 C337.9533505 74.17685145 348.22948657 96.24698065 353.2277832 120.2746582 C353.40145007 121.09062879 353.57511694 121.90659937 353.75404644 122.74729633 C355.83393852 134.11219391 355.51629363 145.53404235 355.50244141 157.046875 C355.5067945 159.44320331 355.51197964 161.83953023 355.51792908 164.2358551 C355.52988559 170.0441026 355.53247802 175.85229624 355.53012881 181.66055455 C355.52833762 186.38835578 355.53011236 191.11614307 355.53435326 195.84394264 C355.53494845 196.51972313 355.53554363 197.19550361 355.53615686 197.89176229 C355.53736876 199.26514119 355.53858289 200.63852008 355.53979924 202.01189897 C355.55064974 214.86191521 355.54852442 227.71190513 355.54241439 240.56192283 C355.53725038 252.27924841 355.54849149 263.99649073 355.56751261 275.71379986 C355.58695598 287.78509864 355.59513548 299.85635816 355.59138936 311.92767268 C355.58948676 318.6886992 355.59187197 325.44965494 355.6061039 332.21066856 C355.61875456 338.57442792 355.61667006 344.93802174 355.60369301 351.30177879 C355.60134318 353.62437498 355.604004 355.94698308 355.61231613 358.26956558 C355.74474937 398.18283851 343.92517792 433.2771101 317.2277832 463.2746582 C316.16246576 464.56400213 315.0993834 465.85520241 314.0402832 467.1496582 C310.76994674 470.92809779 307.08941331 474.11398406 303.2277832 477.2746582 C301.83946289 478.4193457 301.83946289 478.4193457 300.4230957 479.5871582 C281.31096307 495.00193972 259.25253905 505.27696935 235.2277832 510.2746582 C234.41181262 510.44832507 233.59584204 510.62199194 232.75514507 510.80092144 C221.3902475 512.88081352 209.96839906 512.56316863 198.45556641 512.54931641 C196.0592381 512.5536695 193.66291118 512.55885464 191.2665863 512.56480408 C185.45833881 512.57676059 179.65014517 512.57935302 173.84188686 512.57700381 C169.11408562 512.57521262 164.38629834 512.57698736 159.65849876 512.58122826 C158.98271828 512.58182345 158.3069378 512.58241863 157.61067912 512.58303186 C156.23730022 512.58424376 154.86392133 512.58545789 153.49054243 512.58667424 C140.6405262 512.59752474 127.79053628 512.59539942 114.94051858 512.58928939 C103.22319299 512.58412538 91.50595067 512.59536649 79.78864155 512.61438761 C67.71734277 512.63383098 55.64608324 512.64201048 43.57476872 512.63826436 C36.81374221 512.63636176 30.05278646 512.63874697 23.29177284 512.6529789 C16.92801349 512.66562956 10.56441967 512.66354506 4.20066261 512.65056801 C1.87806643 512.64821818 -0.44454167 512.650879 -2.76712418 512.65919113 C-42.68039711 512.79162437 -77.7746687 500.97205292 -107.7722168 474.2746582 C-109.06156073 473.20934076 -110.352761 472.1462584 -111.6472168 471.0871582 C-115.42565638 467.81682174 -118.61154265 464.13628831 -121.7722168 460.2746582 C-122.9169043 458.88633789 -122.9169043 458.88633789 -124.0847168 457.4699707 C-139.49949831 438.35783807 -149.77452795 416.29941405 -154.7722168 392.2746582 C-154.94588367 391.45868762 -155.11955053 390.64271704 -155.29848003 389.80202007 C-157.37837212 378.4371225 -157.06072722 367.01527406 -157.046875 355.50244141 C-157.0512281 353.1061131 -157.05641323 350.70978618 -157.06236267 348.3134613 C-157.07431919 342.50521381 -157.07691161 336.69702017 -157.07456241 330.88876186 C-157.07277122 326.16096062 -157.07454596 321.43317334 -157.07878685 316.70537376 C-157.07967963 315.69170304 -157.07967963 315.69170304 -157.08059045 314.65755412 C-157.08180235 313.28417522 -157.08301649 311.91079633 -157.08423283 310.53741743 C-157.09508333 297.6874012 -157.09295801 284.83741128 -157.08684798 271.98739358 C-157.08168397 260.27006799 -157.09292509 248.55282567 -157.1119462 236.83551655 C-157.13138957 224.76421777 -157.13956908 212.69295824 -157.13582295 200.62164372 C-157.13392035 193.86061721 -157.13630556 187.09966146 -157.15053749 180.33864784 C-157.16318816 173.97488849 -157.16110365 167.61129467 -157.1481266 161.24753761 C-157.14577678 158.92494143 -157.1484376 156.60233333 -157.15674973 154.27975082 C-157.28440569 115.80627168 -146.43112974 80.56586735 -120.7722168 51.2746582 C-120.09288086 50.47415039 -119.41354492 49.67364258 -118.71362305 48.84887695 C-114.4079308 43.8549454 -109.88633679 39.43205506 -104.7722168 35.2746582 C-103.84924805 34.51411133 -102.9262793 33.75356445 -101.9753418 32.9699707 C-82.86515422 17.54851498 -60.79891651 7.27275142 -36.7722168 2.2746582 C-35.95624621 2.10099133 -35.14027563 1.92732447 -34.29957867 1.74839497 C-22.93468109 -0.33149712 -11.51283265 -0.01385222 0 0 Z M4.0402832 130.8371582 C-4.05388806 140.95487229 -9.48482906 152.49683706 -11.7722168 165.2746582 C-12.1125293 167.0380957 -12.1125293 167.0380957 -12.4597168 168.8371582 C-14.31092021 189.20039574 -9.0087041 207.88059992 3.2277832 224.2746582 C3.77176758 225.00426758 4.31575195 225.73387695 4.8762207 226.4855957 C16.93031101 241.36210715 35.54109819 249.9790956 54.2277832 252.2746582 C75.89913912 253.54227407 94.99496518 247.17638769 111.4152832 232.9621582 C126.49392227 218.79014617 134.99267203 201.10454615 135.69848633 180.42944336 C135.9123997 160.58897777 129.60166127 143.1027832 116.2277832 128.2746582 C115.63610352 127.59016602 115.04442383 126.90567383 114.43481445 126.20043945 C102.4833515 113.22966196 84.36513259 104.84184729 66.75512695 103.9387207 C41.89481641 103.44468278 20.77405274 112.07197506 4.0402832 130.8371582 Z M158.2277832 222.2746582 C157.5265332 222.93981445 156.8252832 223.6049707 156.1027832 224.2902832 C143.1763136 237.51971694 138.70012425 255.00013737 138.80761719 272.98779297 C139.3374369 292.85180028 148.0455968 309.75484154 162.3527832 323.3996582 C177.95687145 336.64436541 196.98161647 341.83507321 217.2277832 340.2746582 C235.03720875 337.891332 250.8517951 329.03626031 262.60668945 315.54418945 C275.78941514 298.20903025 280.30559194 279.1680208 277.82543945 257.80981445 C275.43645821 245.17788094 268.80442638 232.78440839 260.2277832 223.2746582 C259.7327832 222.68813477 259.2377832 222.10161133 258.7277832 221.49731445 C246.54945756 208.07071043 228.87982471 201.78511386 211.2277832 200.2746582 C190.5546642 199.56401974 172.68797732 208.09986265 158.2277832 222.2746582 Z M-47.05000305 282.11462402 C-54.15338066 291.02381923 -57.17488322 302.79783697 -60.57299805 313.4934082 C-61.0993111 315.12603181 -61.6264413 316.7583922 -62.15434265 318.39050293 C-63.52862398 322.64730013 -64.8911914 326.90775736 -66.25140381 331.16906738 C-67.36640189 334.65542701 -68.48964695 338.13910278 -69.61332417 341.62267303 C-71.93430758 348.81838587 -74.25005961 356.01579891 -76.55078125 363.21801758 C-76.76217743 363.87673859 -76.97357361 364.53545959 -77.19137573 365.21414185 C-80.2739145 374.88735662 -81.36288399 383.45467215 -77.02612305 392.98950195 C-72.99744313 400.33148872 -67.04123852 405.43220336 -58.89846247 407.82535142 C-56.73456332 408.28261493 -54.81322355 408.40334132 -52.60384846 408.40887928 C-51.7758698 408.41333712 -50.94789115 408.41779497 -50.09482223 408.4223879 C-49.19045793 408.42220354 -48.28609362 408.42201917 -47.35432434 408.42182922 C-46.38945482 408.42550591 -45.42458531 408.4291826 -44.43047732 408.4329707 C-41.18867223 408.44400735 -37.94689919 408.44785136 -34.70507812 408.45166016 C-32.38414406 408.45792479 -30.06321101 408.46457159 -27.74227905 408.47157288 C-20.11294249 408.49261462 -12.48360572 408.50297497 -4.85424805 408.51293945 C-2.22817156 408.51698688 0.39790482 408.5211038 3.02398109 408.52528954 C13.94694697 408.54215791 24.86991078 408.55679285 35.79288769 408.56403828 C38.62608529 408.56594808 41.45928289 408.56786843 44.29248047 408.56982422 C44.99663337 408.57030796 45.70078627 408.5707917 46.42627714 408.5712901 C57.83017894 408.57958841 69.23397579 408.60492307 80.63783177 408.6374049 C92.35284252 408.67050027 104.06779998 408.68848925 115.78285772 408.69168252 C122.35765523 408.69403376 128.93228679 408.70300431 135.50704002 408.72814369 C141.69338948 408.75141585 147.87946361 408.75566086 154.06584549 408.74538231 C156.33417107 408.74488665 158.60251017 408.75121601 160.8707943 408.76493835 C163.97251631 408.78265016 167.07324945 408.77555398 170.17497253 408.7624054 C171.06818323 408.77337464 171.96139392 408.78434389 172.88167161 408.79564553 C181.80743909 408.70457601 188.94472053 405.39318394 195.43481445 399.31762695 C201.06588501 392.90139623 203.30246667 385.72746909 203.2277832 377.2746582 C202.60009517 373.49945259 201.56122227 369.92200377 200.4152832 366.2746582 C200.14135742 365.33493164 199.86743164 364.39520508 199.58520508 363.42700195 C198.22307174 358.39029955 198.22307174 358.39029955 195.2277832 354.2746582 C193.55006088 353.85208974 191.86926403 353.43839283 190.17578125 353.08422852 C170.23236475 348.90341573 151.22506863 337.31225031 139.70336914 320.31176758 C129.40235554 304.48401368 125.22739212 288.81220915 123.2277832 270.2746582 C117.9024221 271.40593206 112.6419423 272.67482174 107.39526367 274.12719727 C72.15370766 283.8162504 35.31291215 281.70541426 0.9855957 269.54418945 C-16.52639804 263.62797535 -34.51709236 268.59912428 -47.05000305 282.11462402 Z " fill="#3F96E4" transform="translate(156.772216796875,-0.274658203125)"/>
<path d="M0 0 C1.96066406 -0.03867188 1.96066406 -0.03867188 3.9609375 -0.078125 C7.83771198 0.26904883 9.72850438 0.65897285 12.625 3.25 C13.26953125 6.02734375 13.26953125 6.02734375 13.4375 9.1875 C13.85872931 13.52265858 13.85872931 13.52265858 16.34375 16.85546875 C18.41156338 17.86237042 20.42682469 18.58246901 22.625 19.25 C23.49125 19.724375 24.3575 20.19875 25.25 20.6875 C28.73721687 21.51341978 30.52962016 19.89244644 33.625 18.25 C36.75 17.8125 36.75 17.8125 39.625 18.25 C44.97700246 22.92506934 49.11442294 29.08442221 50.25 36.125 C49.50222002 39.86389988 48.63854851 40.9694768 45.625 43.25 C44.75746094 43.64574219 43.88992188 44.04148437 42.99609375 44.44921875 C40.28612521 46.07155686 40.28612521 46.07155686 40.171875 49.31640625 C40.27242187 51.04697266 40.27242187 51.04697266 40.375 52.8125 C40.68489848 59.13020305 40.68489848 59.13020305 39.625 61.25 C40.346875 61.4975 41.06875 61.745 41.8125 62 C45.03337128 63.43149835 47.1928185 64.6788367 49.625 67.25 C51.21818168 73.62272674 47.80725831 78.14843235 44.64453125 83.578125 C42.50569733 86.40783951 40.82656019 87.76684911 37.625 89.25 C33.03312754 89.05460117 29.62100094 87.43828623 25.625 85.25 C25.17769531 85.59933594 24.73039062 85.94867188 24.26953125 86.30859375 C20.77476044 88.93898628 18.11221443 90.84207142 13.625 91.25 C13.67140625 91.91386719 13.7178125 92.57773437 13.765625 93.26171875 C13.81976563 94.58623047 13.81976563 94.58623047 13.875 95.9375 C13.92140625 96.80761719 13.9678125 97.67773438 14.015625 98.57421875 C13.46579515 102.34055323 12.52863695 103.76871024 9.625 106.25 C6.44082001 106.96017093 3.3741326 106.90316207 0.125 106.8125 C-0.72964844 106.82345703 -1.58429688 106.83441406 -2.46484375 106.84570312 C-6.31386707 106.80066775 -8.68020914 106.70161406 -11.953125 104.57421875 C-13.73356077 101.66389105 -13.7862967 99.88723063 -13.625 96.5 C-13.58890625 95.51515625 -13.5528125 94.5303125 -13.515625 93.515625 C-13.46921875 92.76796875 -13.4228125 92.0203125 -13.375 91.25 C-14.10976563 91.14300781 -14.84453125 91.03601563 -15.6015625 90.92578125 C-18.54632373 90.20825492 -20.26691912 89.13621417 -22.75 87.4375 C-25.02348738 86.00840312 -25.02348738 86.00840312 -27.375 85.25 C-29.52291527 85.91659439 -30.93925439 86.91139947 -32.7578125 88.21875 C-34.375 89.25 -34.375 89.25 -37.4375 89.5 C-41.90182398 87.60028767 -43.79808513 84.23319585 -46.375 80.25 C-47.303125 79.0125 -47.303125 79.0125 -48.25 77.75 C-49.84843173 74.1979295 -50.34751786 71.06288747 -49.375 67.25 C-46.9384973 64.20054064 -43.59649679 62.39766452 -40.375 60.25 C-40.15362607 57.62302936 -40.09337975 55.24106036 -40.1875 52.625 C-40.20103516 51.91859375 -40.21457031 51.2121875 -40.22851562 50.484375 C-40.2638896 48.73925872 -40.31769779 46.99453392 -40.375 45.25 C-41.15230469 44.94320312 -41.92960937 44.63640625 -42.73046875 44.3203125 C-47.41984201 42.42239777 -47.41984201 42.42239777 -49.375 40.25 C-50.78750803 33.18745984 -47.81057048 28.77012721 -44.19921875 22.7890625 C-42.375 20.25 -42.375 20.25 -39.375 18.25 C-35.58293632 17.82865959 -33.71574039 18.06919898 -30.3125 19.875 C-27.53259181 21.54703376 -27.53259181 21.54703376 -25 20.6875 C-24.13375 20.213125 -23.2675 19.73875 -22.375 19.25 C-21.69695312 19.02441406 -21.01890625 18.79882812 -20.3203125 18.56640625 C-17.95588439 17.68710825 -16.26991128 16.92643916 -14.375 15.25 C-13.67493238 12.64105235 -13.56025262 10.38402556 -13.60546875 7.6875 C-13.31993499 4.66761753 -12.45511875 3.42224522 -10.375 1.25 C-6.78498391 0.05332797 -3.7845161 0.04461119 0 0 Z M-12.125 41.375 C-15.41387247 45.57744815 -17.5127492 49.95599731 -17.28515625 55.3984375 C-16.03666214 61.6052368 -12.85146118 65.56150374 -7.625 69.125 C-2.61955846 70.85765284 1.82654699 71.36049722 6.83984375 69.37109375 C11.59460647 66.6882388 14.9502826 63.52693974 16.625 58.25 C17.48538503 52.58332619 16.90844277 48.06571606 13.625 43.25 C5.43126115 35.23834424 -2.86867554 34.22238565 -12.125 41.375 Z " fill="#338CDE" transform="translate(365.375,216.75)"/>
</svg>
