<?xml version="1.0" encoding="UTF-8"?>
<svg version="1.1" xmlns="http://www.w3.org/2000/svg" width="128" height="128">
<path d="M0 0 C1.29136368 -0.00938095 2.58272736 -0.0187619 3.91322327 -0.02842712 C5.31902734 -0.01794991 6.72482502 -0.00658105 8.13061523 0.00561523 C9.57502821 0.00546023 11.0194416 0.00397102 12.46385193 0.00120544 C15.48764482 -0.00017784 18.51096297 0.01236835 21.53466797 0.03515625 C25.41092842 0.06356682 29.28640173 0.06079607 33.16272068 0.04806614 C36.14388253 0.04111293 39.1248623 0.04889357 42.1060009 0.06132317 C43.53534179 0.06583941 44.96470221 0.06617294 46.39404488 0.06225777 C48.3903335 0.05934877 50.38661852 0.07800104 52.3828125 0.09765625 C53.51880386 0.10305923 54.65479523 0.10846222 55.82521057 0.11402893 C58.62670898 0.50170898 58.62670898 0.50170898 60.45445251 1.83946228 C62.52559793 4.77632356 62.75731864 7.41735513 62.7878418 10.89379883 C62.79744934 11.77836761 62.80705688 12.6629364 62.81695557 13.5743103 C62.82120544 14.52746124 62.82545532 15.48061218 62.82983398 16.46264648 C62.83553406 17.4453653 62.84123413 18.42808411 62.84710693 19.44058228 C62.85655417 21.52019169 62.86308982 23.59981606 62.86694336 25.67944336 C62.87665014 28.85744379 62.90767684 32.03479781 62.93920898 35.21264648 C62.9457391 37.23347598 62.95098954 39.2543101 62.95483398 41.27514648 C62.96718079 42.22424896 62.97952759 43.17335144 62.99224854 44.1512146 C62.97393851 49.58652804 62.6717468 53.45667116 58.62670898 57.50170898 C56.58760255 57.61687934 54.54448018 57.66139745 52.50219727 57.67871094 C51.19058624 57.69154617 49.87897522 57.70438141 48.52761841 57.71760559 C47.08408992 57.725772 45.64055718 57.73321592 44.19702148 57.73999023 C43.4735339 57.74406576 42.75004631 57.74814129 42.00463486 57.75234032 C38.1757002 57.7732174 34.34680157 57.78751219 30.51782227 57.796875 C26.55739011 57.8079456 22.5975189 57.84234744 18.63728523 57.8820467 C15.59698422 57.90815901 12.55681794 57.91656196 9.51641464 57.92015648 C8.05632614 57.92503616 6.59624419 57.93668939 5.1362648 57.95519447 C3.09431666 57.97946777 1.05209714 57.9762128 -0.98999023 57.97167969 C-2.1527951 57.97754593 -3.31559998 57.98341217 -4.51364136 57.98945618 C-7.37329102 57.50170898 -7.37329102 57.50170898 -9.24699402 55.77787781 C-10.53128257 53.1824189 -10.75897881 51.50062915 -10.77734375 48.61303711 C-10.79002792 47.64523315 -10.8027121 46.6774292 -10.81578064 45.68029785 C-10.812845 44.64167603 -10.80990936 43.6030542 -10.80688477 42.53295898 C-10.81212662 41.46049927 -10.81736847 40.38803955 -10.82276917 39.28308105 C-10.82918904 37.01693589 -10.82785284 34.7507574 -10.81933594 32.48461914 C-10.81082228 29.01445327 -10.83959555 25.54593113 -10.87133789 22.07592773 C-10.87294987 19.87410531 -10.87237244 17.67227997 -10.86938477 15.47045898 C-10.88061874 14.43183716 -10.89185272 13.39321533 -10.90342712 12.32312012 C-10.8893557 10.87141418 -10.8893557 10.87141418 -10.875 9.39038086 C-10.87483383 8.54084839 -10.87466766 7.69131592 -10.87449646 6.81604004 C-9.57595374 0.81998038 -5.52158052 0.00080711 0 0 Z M3.62670898 19.50170898 C2.49189489 23.47355833 2.18947075 25.51792295 3.87670898 29.31420898 C6.5689232 32.67947676 8.19573259 33.45305036 12.50170898 33.93920898 C15.80263251 33.82958422 16.70026348 33.45420504 19.62670898 31.56420898 C21.95007452 28.00655551 22.42524026 25.84914611 22.17358398 21.66186523 C21.70169998 19.14136513 21.70169998 19.14136513 19.06420898 16.43920898 C12.54518802 12.76485171 8.06892569 13.36099765 3.62670898 19.50170898 Z M30.62670898 18.50170898 C29.07646434 21.60219827 29.33678883 24.08065116 29.62670898 27.50170898 C31.42233304 30.2549992 32.6792582 32.02798359 35.62670898 33.50170898 C39.8081491 33.89618447 41.93616946 33.95206085 45.50170898 31.62670898 C48.2271579 28.90126007 48.57340767 28.06670289 48.93920898 24.18920898 C48.57794957 19.92634788 47.60678844 18.48178844 44.62670898 15.50170898 C39.13628252 12.75649575 34.72522378 14.40319419 30.62670898 18.50170898 Z M12.62670898 39.50170898 C13.625237 42.39744023 14.58765054 43.47436807 17.12670898 45.25170898 C22.52540857 47.17981598 27.67711232 47.78621076 33.04858398 45.44702148 C35.06529303 44.23842635 36.89748543 43.095686 38.62670898 41.50170898 C38.62670898 40.84170898 38.62670898 40.18170898 38.62670898 39.50170898 C36.47148872 39.9635419 34.7023048 40.46043177 32.75952148 41.52124023 C29.14454731 43.18306902 25.52562754 42.96876694 21.62670898 42.50170898 C18.25170898 41.00170898 18.25170898 41.00170898 15.62670898 39.50170898 C14.63670898 39.50170898 13.64670898 39.50170898 12.62670898 39.50170898 Z " fill="#A800FF" transform="translate(29.373291015625,60.498291015625)"/>
<path d="M0 0 C0.91112045 -0.00960754 1.82224091 -0.01921509 2.76097107 -0.02911377 C3.74743118 -0.03336365 4.7338913 -0.03761353 5.75024414 -0.04199219 C7.26685387 -0.0505423 7.26685387 -0.0505423 8.81410217 -0.05926514 C10.95515901 -0.06872134 13.09623043 -0.07525158 15.23730469 -0.07910156 C18.51856734 -0.08881735 21.79920645 -0.11983931 25.08032227 -0.15136719 C27.15779249 -0.15789605 29.23526721 -0.16314698 31.31274414 -0.16699219 C32.29718002 -0.17933899 33.28161591 -0.19168579 34.29588318 -0.20440674 C35.21015579 -0.20140564 36.12442841 -0.19840454 37.06640625 -0.1953125 C37.87089706 -0.19895813 38.67538788 -0.20260376 39.5042572 -0.20635986 C42.14458722 0.25709157 43.02015043 1.0202247 44.59790039 3.16113281 C44.90817992 5.71236174 45.04224393 8.01531237 45.03149414 10.56738281 C45.03673599 11.28849243 45.04197784 12.00960205 45.04737854 12.75256348 C45.05379569 14.27562168 45.05246564 15.79872946 45.04394531 17.32177734 C45.03542922 19.65323963 45.06420487 21.98225606 45.09594727 24.31347656 C45.09755926 25.79394458 45.09698179 27.27441693 45.09399414 28.75488281 C45.11084511 29.80029236 45.11084511 29.80029236 45.1280365 30.86682129 C45.08529113 33.83215241 44.93517345 35.72407742 43.09765625 38.10522461 C39.46543076 39.63949312 35.97794526 39.52271861 32.10571289 39.46191406 C30.41430273 39.46955651 28.72289623 39.47804647 27.03149414 39.48730469 C24.37609356 39.48509554 21.72142503 39.47361749 19.06616211 39.44604492 C16.49526387 39.4252695 13.92656768 39.44138599 11.35571289 39.46191406 C10.56802521 39.44340897 9.78033752 39.42490387 8.96878052 39.40583801 C4.58574704 39.43871089 4.58574704 39.43871089 0.89666748 41.57870483 C-0.09989978 42.67599174 -1.08061507 43.78796354 -2.04202271 44.91618347 C-3.40209961 46.16113281 -3.40209961 46.16113281 -6.27709961 46.03613281 C-7.32897461 45.60300781 -7.32897461 45.60300781 -8.40209961 45.16113281 C-8.45156082 39.53777345 -8.48784829 33.91454092 -8.51196289 28.29101562 C-8.52201651 26.37823277 -8.53566134 24.46546526 -8.55297852 22.55273438 C-8.57725483 19.80237029 -8.58858911 17.05220954 -8.59741211 14.30175781 C-8.60773468 13.44745178 -8.61805725 12.59314575 -8.62869263 11.71295166 C-8.62884369 10.91242371 -8.62899475 10.11189575 -8.62915039 9.28710938 C-8.63359161 8.58539612 -8.63803284 7.88368286 -8.64260864 7.16070557 C-8.35638898 4.78109834 -7.65485685 3.19636857 -6.40209961 1.16113281 C-4.05129151 -0.01427124 -2.62094536 0.02226693 0 0 Z M3.59790039 12.16113281 C3.92790039 13.15113281 4.25790039 14.14113281 4.59790039 15.16113281 C6.57790039 15.16113281 8.55790039 15.16113281 10.59790039 15.16113281 C10.59790039 14.17113281 10.59790039 13.18113281 10.59790039 12.16113281 C8.28790039 12.16113281 5.97790039 12.16113281 3.59790039 12.16113281 Z M19.59790039 12.16113281 C19.59790039 13.15113281 19.59790039 14.14113281 19.59790039 15.16113281 C23.88790039 15.16113281 28.17790039 15.16113281 32.59790039 15.16113281 C32.92790039 14.17113281 33.25790039 13.18113281 33.59790039 12.16113281 C28.97790039 12.16113281 24.35790039 12.16113281 19.59790039 12.16113281 Z M3.59790039 24.16113281 C3.92790039 25.15113281 4.25790039 26.14113281 4.59790039 27.16113281 C13.83790039 27.16113281 23.07790039 27.16113281 32.59790039 27.16113281 C32.92790039 26.17113281 33.25790039 25.18113281 33.59790039 24.16113281 C23.69790039 24.16113281 13.79790039 24.16113281 3.59790039 24.16113281 Z " fill="#C900FF" transform="translate(75.402099609375,9.8388671875)"/>
<path d="M0 0 C3.8425303 0.72047443 5.45767292 1.57152696 8 4.5625 C8.65822725 7.35567303 8.64680741 9.76736798 8 12.5625 C6.0625 14.8125 6.0625 14.8125 4 16.5625 C3.2127322 18.7006966 3.2127322 18.7006966 3 20.5625 C1.35 20.5625 -0.3 20.5625 -2 20.5625 C-2 19.2425 -2 17.9225 -2 16.5625 C-2.61875 16.294375 -3.2375 16.02625 -3.875 15.75 C-6 14.5625 -6 14.5625 -8 11.5625 C-8.4375 8.6875 -8.4375 8.6875 -8 5.5625 C-5.53959272 2.23371368 -4.10389613 0.76948052 0 0 Z " fill="#A800FF" transform="translate(55,37.4375)"/>
<path d="M0 0 C0 8.25 0 16.5 0 25 C-4.2199688 22.8900156 -5.69395278 22.03558263 -8 18 C-8.8543134 13.31575618 -9.1100063 8.96620018 -6.71875 4.73046875 C-2.78793279 0 -2.78793279 0 0 0 Z " fill="#8200FF" transform="translate(16,77)"/>
<path d="M0 0 C5.06362026 3.03817215 6.08085168 3.74759408 8 9 C8.55878366 14.21531417 7.89550431 17.60682104 5 22 C3.35 22.99 1.7 23.98 0 25 C0 16.75 0 8.5 0 0 Z " fill="#CE00FF" transform="translate(95,77)"/>
<path d="M0 0 C1.9375 1.0625 1.9375 1.0625 3 3 C3.36528977 6.4093712 3.6140629 8.88023824 1.9375 11.9375 C-1.11976176 13.6140629 -3.5906288 13.36528977 -7 13 C-8.9375 11.9375 -8.9375 11.9375 -10 10 C-10.36528977 6.5906288 -10.6140629 4.11976176 -8.9375 1.0625 C-5.88023824 -0.6140629 -3.4093712 -0.36528977 0 0 Z " fill="#B400FF" transform="translate(72,78)"/>
<path d="M0 0 C3.5 0.4375 3.5 0.4375 5.375 1.6875 C6.68626396 3.72724393 7.28582164 5.0101452 7.5 7.4375 C6.6875 10.125 6.6875 10.125 5.5 12.4375 C2.45016004 13.96241998 -0.1423369 13.67312548 -3.5 13.4375 C-5.4375 12.3125 -5.4375 12.3125 -6.5 10.4375 C-6.92030443 7.14511528 -6.795454 5.09792658 -5.4375 2.0625 C-3.5 0.4375 -3.5 0.4375 0 0 Z " fill="#9D00FF" transform="translate(41.5,77.5625)"/>
</svg>
