<?xml version="1.0" encoding="iso-8859-1"?>
<!-- Uploaded to: SVG Repo, www.svgrepo.com, Generator: SVG Repo Mixer Tools -->
<svg height="800px" width="800px" version="1.1" id="Layer_1" xmlns="http://www.w3.org/2000/svg" xmlns:xlink="http://www.w3.org/1999/xlink" 
	 viewBox="0 0 502.998 502.998" xml:space="preserve">
<path style="fill:#C39A6E;" d="M406.069,136.741c0-19.421-15.89-35.31-35.31-35.31H264.828L220.69,48.465H61.793
	c-15.007,0-26.483,12.359-26.483,26.483v61.793H406.069z"/>
<path style="fill:#FBC176;" d="M459.034,163.223v264.828c0,15.007-11.476,26.483-26.483,26.483H26.483
	C11.476,454.534,0,443.058,0,428.051V163.223c0-15.007,11.476-26.483,26.483-26.483h406.069
	C446.676,136.741,459.034,149.099,459.034,163.223"/>
<path style="fill:#C39A6E;" d="M467.862,172.051c22.069,0,38.841,21.186,34.428,42.372l-43.255,204.8V172.051H467.862z"/>
<g>
	<path style="fill:#FFFFFF;" d="M158.897,198.534H52.966c-5.297,0-8.828-3.531-8.828-8.828s3.531-8.828,8.828-8.828h105.931
		c5.297,0,8.828,3.531,8.828,8.828S164.193,198.534,158.897,198.534"/>
	<path style="fill:#FFFFFF;" d="M158.897,233.844H52.966c-5.297,0-8.828-3.531-8.828-8.828s3.531-8.828,8.828-8.828h105.931
		c5.297,0,8.828,3.531,8.828,8.828S164.193,233.844,158.897,233.844"/>
</g>
</svg>