<?xml version="1.0" encoding="UTF-8"?>
<svg version="1.1" xmlns="http://www.w3.org/2000/svg" width="512" height="512">
<path d="M0 0 C47.85 0 95.7 0 145 0 C144.34 4.29 143.68 8.58 143 13 C142.82589208 17.22682437 142.72549066 21.38462109 142.74121094 25.6081543 C142.7377063 26.79367889 142.73420166 27.97920349 142.73059082 29.20065308 C142.72186926 33.07523653 142.72758752 36.94963381 142.734375 40.82421875 C142.73392818 43.53937424 142.73108576 46.25452653 142.72857666 48.96968079 C142.72495594 54.64069599 142.72968758 60.3116588 142.73925781 65.98266602 C142.75015452 72.51464101 142.74660034 79.04649124 142.735605 85.57846326 C142.72649668 91.21791158 142.72526364 96.85732261 142.73048234 102.49677593 C142.73358062 105.85153413 142.73327082 109.20618728 142.72740936 112.56094933 C142.72230677 116.30072748 142.73010624 120.0402687 142.74121094 123.7800293 C142.73513824 125.42067604 142.73513824 125.42067604 142.72894287 127.09446716 C142.78777719 137.8386653 143.77441549 147.39606505 151.4140625 155.5 C159.45451116 162.72350468 168.69888139 163.15030007 178.90161133 163.14526367 C179.88289505 163.14862228 180.86417877 163.1519809 181.87519836 163.15544128 C185.1108223 163.16491991 188.34639431 163.16689287 191.58203125 163.16796875 C193.83876059 163.17118356 196.09548972 163.1745478 198.35221863 163.17805481 C203.08060184 163.18403841 207.80896679 163.18589551 212.53735352 163.18530273 C218.58303246 163.18520118 224.62859379 163.19885043 230.67424488 163.21607494 C235.33522576 163.2272178 239.99617842 163.22922123 244.65717125 163.22869301 C246.88539726 163.22986979 249.11362408 163.23427455 251.34183693 163.24202538 C254.46470904 163.25187099 257.58732852 163.2489291 260.71020508 163.24291992 C261.62219666 163.24853943 262.53418823 163.25415894 263.47381592 163.25994873 C273.43521281 163.21147351 282.05745539 161.58753545 289.50390625 154.5859375 C297.44896507 145.71593153 297.14983923 135.27260605 297.14526367 124.12060547 C297.14862228 122.94077591 297.1519809 121.76094635 297.15544128 120.54536438 C297.16328879 117.32392427 297.1666175 114.10252294 297.16725707 110.88107443 C297.16797061 108.86193793 297.17011072 106.84280808 297.17275429 104.82367325 C297.18199438 97.76069972 297.18609113 90.697745 297.18530273 83.63476562 C297.18470332 77.08253424 297.19523179 70.53038554 297.2110464 63.97817504 C297.22418945 58.32861667 297.22948376 52.67908509 297.22884732 47.02951157 C297.22859418 43.66617296 297.23228396 40.3029659 297.24202538 36.93963242 C297.25189745 33.17827386 297.2489185 29.41712413 297.24291992 25.65576172 C297.24853943 24.56335678 297.25415894 23.47095184 297.25994873 22.34544373 C297.22857611 14.54661623 296.21524273 7.89907777 295 0 C352.09 0 409.18 0 468 0 C468.1613254 63.53979982 468.1613254 63.53979982 468.1953125 90.04492188 C468.20314415 96.11189822 468.21122612 102.17887416 468.21972656 108.24584961 C468.22078156 109.00626035 468.22183655 109.76667109 468.22292352 110.55012459 C468.24032717 122.83105934 468.27186595 135.11191928 468.30861118 147.39280965 C468.34599951 159.99359741 468.36823138 172.59434596 468.37635398 185.19518691 C468.38184615 192.97243663 468.39920093 200.74947498 468.43166587 208.52665965 C468.45528238 214.48729163 468.45782517 220.44781476 468.45243073 226.40849495 C468.45353368 228.85588255 468.46152349 231.30327795 468.4768219 233.75061798 C468.49665371 237.08601116 468.49196334 240.42049191 468.48101807 243.75590515 C468.49266943 244.72964181 468.5043208 245.70337847 468.51632524 246.7066223 C468.47806428 251.00505092 468.39950347 253.35457579 466.09493637 257.07775593 C462.43289489 260.43792363 459.39290307 260.14393568 454.64634991 260.13422108 C453.8756418 260.13657331 453.10493369 260.13892554 452.3108708 260.14134905 C449.70110439 260.14806177 447.0913875 260.14758014 444.48161316 260.14717102 C442.60254077 260.15046823 440.72346909 260.15419349 438.84439832 260.1583125 C433.65945136 260.1683568 428.47451599 260.17205318 423.28956068 260.17470181 C417.70593926 260.17859763 412.12232708 260.1881764 406.53871155 260.19691467 C393.04441164 260.21669872 379.55011096 260.22674738 366.05580017 260.23564246 C359.70718061 260.24002186 353.3585619 260.24538954 347.00994301 260.25063133 C325.91654605 260.26764494 304.82314945 260.28216548 283.72974682 260.28938007 C282.36519866 260.28985483 281.0006505 260.29033072 279.63610234 260.29080774 C278.62104348 260.2911623 278.62104348 260.2911623 277.58547837 260.29152403 C274.15683909 260.29272525 270.72819982 260.29394069 267.29956055 260.29516602 C266.2789175 260.29552624 266.2789175 260.29552624 265.23765539 260.29589374 C243.16911957 260.3037893 221.10063745 260.32722608 199.03212508 260.35972196 C175.71079105 260.39400005 152.38949289 260.41372815 129.06812936 260.41702431 C116.35100565 260.41919311 103.63396087 260.42799571 90.91686058 260.45348549 C80.08956599 260.4751368 69.26236948 260.48327042 58.4350557 260.47351871 C52.90739334 260.46895792 47.37993361 260.47096316 41.85229874 260.49028015 C36.7960284 260.50779789 31.74011022 260.50700738 26.68383674 260.49138286 C24.85070643 260.48898938 23.01755246 260.49341955 21.18445852 260.50521151 C18.69959689 260.5202112 16.21600241 260.51074178 13.73117352 260.49498463 C13.01329876 260.50520683 12.295424 260.51542904 11.55579546 260.52596101 C6.77778998 260.45946933 4.35710518 259.38093863 1 256 C-0.1589499 253.68210019 -0.12431865 252.36686469 -0.12304783 249.78709221 C-0.12503888 248.89832764 -0.12702993 248.00956306 -0.12908131 247.09386623 C-0.12616847 246.11139104 -0.12325563 245.12891586 -0.12025452 244.1166687 C-0.12110894 243.07773755 -0.12196337 242.0388064 -0.12284368 240.96839249 C-0.12449934 237.46442547 -0.11897569 233.96050563 -0.11352539 230.45654297 C-0.11324351 227.95381674 -0.11340127 225.45109043 -0.1139679 222.94836426 C-0.11419609 217.54849516 -0.11134774 212.14864143 -0.10573006 206.74877548 C-0.09761304 198.94141796 -0.09499963 191.13406628 -0.09374207 183.32670499 C-0.09155187 170.66067112 -0.08489264 157.99464367 -0.07543945 145.32861328 C-0.06626451 133.02262402 -0.05919554 120.71663651 -0.05493164 108.41064453 C-0.05466364 107.64473476 -0.05439565 106.87882499 -0.05411953 106.08970582 C-0.05204018 100.10004714 -0.05008323 94.11038842 -0.04816496 88.12072968 C-0.03872633 58.74714722 -0.0186092 29.37358085 0 0 Z M41.1875 33.6875 C31.15227826 46.20785919 30.66910359 61.40860539 30.8046875 76.8359375 C30.8075174 78.0813028 30.81034729 79.32666809 30.81326294 80.60977173 C30.82433002 84.53161826 30.84940851 88.45322418 30.875 92.375 C30.88619546 95.05728584 30.89430805 97.73957807 30.90234375 100.421875 C30.924225 106.94799678 30.95756515 113.47398119 31 120 C29.515 120.495 29.515 120.495 28 121 C26.64505353 124.3225612 26.8665902 127.8398487 26.85473633 131.38232422 C26.84835648 132.67822479 26.84197662 133.97412537 26.83540344 135.30929565 C26.83387329 136.72442589 26.83276012 138.13955663 26.83203125 139.5546875 C26.8288138 141.01758862 26.82544937 142.48048943 26.82194519 143.94338989 C26.81595697 147.01500186 26.81410464 150.08658573 26.81469727 153.15820312 C26.8147981 157.05563296 26.80122663 160.95287738 26.78392506 164.8502636 C26.77268403 167.87727652 26.77078183 170.9042466 26.77130699 173.93127823 C26.77014189 175.36549637 26.76580487 176.79971618 26.75797462 178.23391342 C26.66728947 196.58210763 27.98653965 212.92188153 41.33984375 226.58984375 C51.42139837 235.72393949 64.28449188 239.81443225 77.83984375 239.3203125 C91.93772562 237.89135538 103.37538846 232.43912962 113 222 C123.29493124 208.38901722 123.15966801 192.8945936 123.203125 176.54296875 C123.20595238 175.81919855 123.20877975 175.09542835 123.21169281 174.34972572 C123.22656874 170.53140537 123.23587552 166.71312179 123.24023438 162.89477539 C123.24575204 158.9629279 123.26988147 155.03142093 123.29820633 151.0996809 C123.31683573 148.06017556 123.3220381 145.02075306 123.32357025 141.98119545 C123.32658849 140.53115253 123.33458896 139.08111078 123.34775543 137.6311245 C123.36484649 135.60726181 123.36108644 133.5832557 123.35644531 131.55932617 C123.36009094 130.41034348 123.36373657 129.26136078 123.36749268 128.07756042 C122.95598065 124.6313608 121.7982023 122.91809607 120 120 C119.61473083 117.32899475 119.61473083 117.32899475 119.59936523 114.42211914 C119.57935707 112.77869286 119.57935707 112.77869286 119.5589447 111.10206604 C119.55877098 109.33644569 119.55877098 109.33644569 119.55859375 107.53515625 C119.53878197 105.69781166 119.53878197 105.69781166 119.51856995 103.823349 C119.47768784 99.9030435 119.45603479 95.98297018 119.4375 92.0625 C119.41357447 88.17423893 119.3851525 84.2861921 119.34571838 80.39805603 C119.32171823 77.98159707 119.3065714 75.56502678 119.30210876 73.14845276 C119.16434163 57.947283 117.20431855 46.39511094 108.8125 33.6875 C98.78790446 24.10844204 86.74407936 19.34578341 72.9362793 19.52709961 C61.09539538 20.05055548 49.39253487 25.04038351 41.1875 33.6875 Z M334 88 C333.44699219 88.51820313 332.89398438 89.03640625 332.32421875 89.5703125 C321.93257909 100.27006007 317.25595959 116.09844842 316.9140625 130.66015625 C317.62850014 147.63745061 324.26807773 162.80450633 336 175 C349.17115592 186.86523394 364.83516685 192.66443021 382.48046875 192.30859375 C400.77804893 190.70425542 416.0543218 182.63203597 428.02734375 168.62890625 C437.4781172 156.03476833 442.35062431 140.70879961 441 125 C438.24170238 107.20193363 431.14559521 92.59683932 417 81 C389.88525467 62.55146867 357.44642834 64.67806597 334 88 Z " fill="#517AD8" transform="translate(22,119)"/>
<path d="M0 0 C1.40717413 -0.01302666 2.81433165 -0.02797676 4.22146606 -0.04475403 C7.16570715 -0.07002774 10.10802088 -0.06500342 13.05224609 -0.03979492 C16.80930085 -0.01103832 20.55937055 -0.06830745 24.31544304 -0.14997387 C27.22082057 -0.20164818 30.12454444 -0.20168832 33.03027725 -0.1871891 C34.41373658 -0.18739443 35.7973092 -0.20453698 37.18032455 -0.23958397 C47.91337332 -0.47467021 47.91337332 -0.47467021 52.24783325 3.52095032 C54.30482413 6.31961674 56.01493079 9.13143811 57.6953125 12.16796875 C58.8910377 13.95040383 60.09989479 15.72418066 61.328125 17.484375 C62.49458846 19.23147228 63.65866475 20.9801658 64.8203125 22.73046875 C65.40167969 23.59865234 65.98304688 24.46683594 66.58203125 25.36132812 C69.40485739 29.60188238 72.18392002 33.86981954 74.875 38.1953125 C75.32343262 38.91323975 75.77186523 39.63116699 76.23388672 40.37084961 C80.9021969 49.30583621 82.28546572 56.58235128 82.24462891 66.67651367 C82.25485077 67.99321548 82.26507263 69.3099173 82.27560425 70.66651917 C82.30218441 74.24904242 82.30356532 77.83114123 82.29847765 81.41374373 C82.29632639 84.41341089 82.306134 87.41299421 82.31568849 90.41264325 C82.33780552 97.48959724 82.33879256 104.5663388 82.32666016 111.64331055 C82.31455949 118.93046207 82.33927122 126.21684334 82.38180029 133.50386351 C82.41706626 139.77848243 82.42903057 146.0528564 82.42252481 152.32757074 C82.41890702 156.06754936 82.42409195 159.80697718 82.45195389 163.54686546 C82.48184677 167.71428722 82.46314332 171.88014309 82.43994141 176.04760742 C82.45522888 177.27843048 82.47051636 178.50925354 82.48626709 179.77737427 C82.40583325 186.31073245 81.93249713 190.31027169 77.17694664 195.0003252 C74.46692246 197.13603614 72.630623 197.3000959 69.24995422 197.32859802 C67.84742653 197.34366646 67.84742653 197.34366646 66.41656494 197.35903931 C65.38747009 197.3648703 64.35837524 197.37070129 63.2980957 197.37670898 C62.2166478 197.38649277 61.13519989 197.39627655 60.02098083 197.40635681 C56.42936442 197.43635766 52.83778539 197.45771017 49.24609375 197.4765625 C48.02101797 197.48313433 46.79594219 197.48970615 45.5337429 197.49647713 C39.71758147 197.52572668 33.90143573 197.5496426 28.08522636 197.56690925 C22.04493109 197.58522656 16.00514813 197.61853908 9.96508789 197.67553711 C3.48530523 197.73568473 -2.99399053 197.766467 -9.47403908 197.77617073 C-11.94400504 197.78473653 -14.41395762 197.80358199 -16.88376427 197.83291435 C-20.34325323 197.87178559 -23.80084288 197.87286801 -27.26049805 197.86499023 C-28.78895859 197.89499115 -28.78895859 197.89499115 -30.34829712 197.92559814 C-36.40390418 197.86375346 -39.69282353 196.93282139 -44.06405354 192.65127659 C-46.23135968 190.06003511 -46.42553773 188.32870128 -46.40234375 185.03515625 C-46.39912109 184.22949219 -46.39589844 183.42382812 -46.39257812 182.59375 C-46.38419922 181.75199219 -46.37582031 180.91023437 -46.3671875 180.04296875 C-46.36267578 179.19347656 -46.35816406 178.34398437 -46.35351562 177.46875 C-46.34171624 175.36845966 -46.32378056 173.26820545 -46.3046875 171.16796875 C-45.24947906 171.16210251 -44.19427063 171.15623627 -43.10708618 171.15019226 C-33.13250803 171.09282477 -23.15814496 171.01999039 -13.18378639 170.93225384 C-8.05662248 170.8876448 -2.92953629 170.848368 2.19775391 170.8215332 C7.15162767 170.79540556 12.10520078 170.75493682 17.05888748 170.70478249 C18.94294095 170.68817754 20.82704635 170.67662378 22.71116257 170.67035484 C38.25456465 170.84073382 38.25456465 170.84073382 52.5703125 165.41796875 C59.06146861 158.54497992 59.84644862 151.5210837 59.84057617 142.27001953 C59.84393478 141.50170807 59.8472934 140.73339661 59.85075378 139.94180298 C59.86021045 137.41561238 59.86220418 134.88948842 59.86328125 132.36328125 C59.86649734 130.59740167 59.86986167 128.83152234 59.87336731 127.06564331 C59.87934524 123.36878848 59.88120857 119.67195698 59.88061523 115.97509766 C59.88051365 111.25209009 59.89416793 106.52923299 59.91138744 101.80626106 C59.92253815 98.16013917 59.9245335 94.51405331 59.92400551 90.86791611 C59.92518091 89.12730262 59.92957786 87.38668805 59.93733788 85.64609146 C59.94720065 83.2055245 59.94423521 80.76527985 59.93823242 78.32470703 C59.94385193 77.61483643 59.94947144 76.90496582 59.95526123 76.17358398 C59.90884486 68.69893321 58.61893191 61.99857068 53.6953125 56.16796875 C46.65853113 50.60470142 40.12121142 50.02908482 31.30322266 49.96264648 C30.48304657 49.95274689 29.66287048 49.94284729 28.81784058 49.93264771 C26.1233808 49.90121455 23.42890343 49.87634764 20.734375 49.8515625 C18.85964516 49.83097725 16.9849198 49.80998037 15.11019897 49.78858948 C10.18820839 49.73353106 5.26617705 49.68405053 0.34411621 49.63574219 C-4.68338628 49.5854083 -9.71082997 49.52978442 -14.73828125 49.47460938 C-24.5936997 49.36722646 -34.44916932 49.26573777 -44.3046875 49.16796875 C-43.19108085 45.76113763 -42.1446576 42.5659958 -40.34375 39.4609375 C-39.96057617 38.8002124 -39.57740234 38.1394873 -39.18261719 37.45874023 C-38.76915039 36.76466064 -38.35568359 36.07058105 -37.9296875 35.35546875 C-37.4955957 34.62207275 -37.06150391 33.88867676 -36.61425781 33.13305664 C-32.07052032 25.58186658 -27.11430703 18.27862765 -21.78790283 11.25587463 C-20.27443753 9.22632514 -20.27443753 9.22632514 -19.21585083 7.07794189 C-14.73707267 -0.71560073 -8.22816011 -0.05621486 0 0 Z " fill="#33ABE0" transform="translate(224.3046875,71.83203125)"/>
<path d="M0 0 C0.85198089 -0.0055344 1.70396179 -0.01106879 2.58176029 -0.0167709 C5.41767375 -0.03031208 8.2526971 -0.01544403 11.08859253 -0.00050354 C13.12927625 -0.00428903 15.16995739 -0.00979097 17.21063232 -0.01687622 C22.73942043 -0.03081617 28.26789684 -0.01967193 33.79666758 -0.00316501 C39.58610678 0.01070201 45.3755282 0.00422367 51.16497803 0.0007019 C60.88435887 -0.00199847 70.6036161 0.01146211 80.32296753 0.03465271 C91.55885343 0.06127626 102.79453285 0.06300411 114.0304395 0.05126435 C124.84373371 0.04048564 135.65695326 0.04667342 146.47024155 0.06081963 C151.07059367 0.06657709 155.67089112 0.06649864 160.27124405 0.06175423 C165.68693741 0.05698214 171.10240462 0.06709593 176.51805496 0.08870888 C178.50542946 0.09427317 180.4928257 0.09474533 182.48020172 0.08975601 C185.19294404 0.08379966 187.90499567 0.09631498 190.61767578 0.11352539 C191.40405902 0.10751535 192.19044226 0.1015053 193.00065529 0.09531313 C199.30056342 0.1679947 203.23117442 1.7319842 207.86935425 5.93870544 C218.64604822 17.88044742 214.18185425 22.32579042 214.18185425 43.50120544 C135.64185425 43.50120544 57.10185425 43.50120544 -23.81814575 43.50120544 C-23.81814575 11.69039463 -23.81814575 11.69039463 -16.81814575 4.50120544 C-11.29859134 0.89185198 -6.50159222 -0.07986455 0 0 Z " fill="#8F15C9" transform="translate(160.81814575195313,450.49879455566406)"/>
<path d="M0 0 C25.46883601 -0.09339221 50.93764639 -0.16395418 76.40661907 -0.20724869 C88.23199369 -0.22788433 100.05726198 -0.25602417 111.88256836 -0.30175781 C122.18807905 -0.34159478 132.49351276 -0.36742552 142.79909831 -0.37635398 C148.25714542 -0.38157402 153.71497225 -0.39386402 159.17294884 -0.42292023 C164.30864096 -0.4500396 169.44402175 -0.45845198 174.57977867 -0.45243073 C176.46600027 -0.45353252 178.35223213 -0.46150702 180.23839188 -0.4768219 C182.81191504 -0.49669554 185.38425956 -0.49194908 187.95780945 -0.48101807 C189.07990194 -0.49849512 189.07990194 -0.49849512 190.22466296 -0.51632524 C195.0936936 -0.46034449 197.58656536 0.52844483 201 4 C202.48679725 6.97359449 202.11112605 9.66299179 202.09765625 12.9765625 C202.09553383 14.00443375 202.09553383 14.00443375 202.09336853 15.05307007 C202.08776675 17.24375761 202.07521406 19.4343433 202.0625 21.625 C202.05748522 23.10937352 202.05292228 24.59374865 202.04882812 26.078125 C202.03779677 29.71878315 202.02053099 33.35938164 202 37 C178.7042548 37.37408701 155.40900601 37.6560631 132.11086464 37.82899475 C121.2924511 37.91143274 110.47590562 38.02377358 99.65869141 38.20703125 C90.22805379 38.36672208 80.79876895 38.46977873 71.36681688 38.50541592 C66.37369605 38.52624473 61.38444428 38.57501821 56.39256668 38.69168091 C51.68805826 38.80073147 46.98898892 38.83371108 42.28333664 38.8097229 C40.5617991 38.81410659 38.8400703 38.84570738 37.11962891 38.9072876 C26.52136153 39.26786081 26.52136153 39.26786081 22 37 C17.85022916 33.07875624 15.38103065 28.03228061 12.96164966 22.93310356 C11.6079178 20.21183822 9.92611552 17.7633803 8.1796875 15.28125 C7.62539063 14.47558594 7.07109375 13.66992188 6.5 12.83984375 C5.96375 12.06769531 5.4275 11.29554687 4.875 10.5 C4.01261719 9.24896484 4.01261719 9.24896484 3.1328125 7.97265625 C1.75829464 5.97960535 0.38076813 3.98872315 -1 2 C-0.67 1.34 -0.34 0.68 0 0 Z " fill="#1AD3E6" transform="translate(288,68)"/>
<path d="M0 0 C0.68774565 -0.00085442 1.37549129 -0.00170885 2.08407772 -0.00258917 C4.3995736 -0.00424253 6.7149978 0.00127506 9.03048706 0.00672913 C10.68593341 0.00701105 12.34137989 0.00685315 13.99682617 0.00628662 C18.50070721 0.00599887 23.0045618 0.01189204 27.50843668 0.01886058 C32.21165744 0.02509778 36.91487877 0.02569821 41.61810303 0.02688599 C50.52869967 0.02999822 59.43928408 0.03821015 68.34987533 0.04823548 C78.49241147 0.05939997 88.63494819 0.06490791 98.77748895 0.06993091 C119.64551989 0.08039285 140.51353981 0.09799021 161.38156128 0.12025452 C161.71156128 0.78025452 162.04156128 1.44025452 162.38156128 2.12025452 C161.72671753 3.05482483 161.07187378 3.98939514 160.39718628 4.95228577 C159.96248394 5.5804334 159.5277816 6.20858103 159.07990646 6.85576344 C158.114421 8.24031232 157.135471 9.61556866 156.14332962 10.981143 C153.34983278 14.9087078 151.0751808 18.59519023 149.35635376 23.10848999 C147.00686581 28.75025872 144.43403518 33.49819986 139.38156128 37.12025452 C129.26724205 40.40839395 117.96482099 39.39373031 107.47161198 39.04673934 C103.24415485 38.92722251 99.01639187 38.9167483 94.7875061 38.89425659 C86.79566973 38.83540713 78.80882485 38.67981165 70.81917834 38.48861629 C61.71700084 38.27556952 52.61457308 38.17161678 43.5105195 38.07640302 C24.79804585 37.87827752 6.09020596 37.54452228 -12.61843872 37.12025452 C-12.71763982 32.79699419 -12.79006137 28.47434428 -12.83816528 24.15028381 C-12.85822697 22.68076531 -12.8854835 21.21132611 -12.92019653 19.74208069 C-12.96896013 17.62444964 -12.99146033 15.50787765 -13.00906372 13.38978577 C-13.03001099 12.11723938 -13.05095825 10.84469299 -13.07254028 9.53358459 C-12.54163408 5.54293964 -11.42915386 3.94109659 -8.61843872 1.12025452 C-5.72676906 -0.32558031 -3.2320437 -0.00240838 0 0 Z " fill="#1AD4E6" transform="translate(34.618438720703125,67.87974548339844)"/>
<path d="M0 0 C22.44 0 44.88 0 68 0 C68.0825 11.17875 68.165 22.3575 68.25 33.875 C68.28641602 37.38624512 68.32283203 40.89749023 68.36035156 44.51513672 C68.37841797 48.84985352 68.37841797 48.84985352 68.3817749 50.88821411 C68.3878605 52.29199314 68.40180938 53.69575312 68.42230225 55.09939575 C68.58343334 66.73179654 67.43666824 76.38143411 59.1953125 85.17578125 C49.92916913 92.87558366 39.69165497 94.80279778 28 94 C19.07508769 92.37379647 11.00188707 88.35717092 5.41156006 81.06710815 C-0.57409492 72.30163187 -0.54007303 63.16601379 -0.390625 52.9296875 C-0.38472946 51.56974953 -0.38065764 50.20980242 -0.37841797 48.84985352 C-0.35761312 43.85809549 -0.30176846 38.86653293 -0.25 33.875 C-0.1675 22.69625 -0.085 11.5175 0 0 Z " fill="#596DD6" transform="translate(63,251)"/>
<path d="M0 0 C5.45004732 4.21082543 8.35509598 9.18392023 10.25 15.75 C10.49050903 18.9012146 10.49050903 18.9012146 10.47705078 22.30615234 C10.47689972 23.58702728 10.47674866 24.86790222 10.47659302 26.18759155 C10.46638209 27.57037515 10.45595014 28.95315712 10.4453125 30.3359375 C10.44157835 31.76225587 10.43873328 33.18857682 10.43673706 34.61489868 C10.42913219 38.35332427 10.40951109 42.09159233 10.3873291 45.82995605 C10.36318818 50.32375331 10.35407469 54.81760349 10.34242249 59.31144714 C10.32308453 66.12440736 10.2847404 72.93702253 10.25 79.75 C-9.55 79.75 -29.35 79.75 -49.75 79.75 C-49.91043524 64.1387601 -49.91043524 64.1387601 -49.9453125 57.43945312 C-49.96914347 52.8836788 -49.99721094 48.3282287 -50.05175781 43.77270508 C-50.09549865 40.09628199 -50.11919592 36.42020702 -50.12950897 32.74354362 C-50.13685014 31.34700993 -50.15118483 29.95049341 -50.17292023 28.55410957 C-50.31832948 18.81736223 -49.2123407 12.1908211 -44 4 C-32.39773469 -7.60226531 -13.63393221 -8.84599884 0 0 Z " fill="#3C9DDE" transform="translate(116.75,157.25)"/>
<path d="M0 0 C33 0 66 0 100 0 C100 14.52 100 29.04 100 44 C67 44 34 44 0 44 C0 29.48 0 14.96 0 0 Z " fill="#7E32CD" transform="translate(206,393)"/>
<path d="M0 0 C14.788125 -0.061875 29.57625 -0.12375 44.8125 -0.1875 C51.8194812 -0.22846802 51.8194812 -0.22846802 58.96801758 -0.27026367 C64.6673584 -0.28381348 64.6673584 -0.28381348 67.33451843 -0.28633118 C69.19940842 -0.29094134 71.0642894 -0.3014996 72.92912292 -0.31672668 C75.75214196 -0.33862763 78.57461405 -0.34172003 81.39770508 -0.34057617 C82.23006337 -0.3513705 83.06242167 -0.36216482 83.92000294 -0.37328625 C89.54599843 -0.34268773 89.54599843 -0.34268773 91.71228504 1.29246044 C93.93656941 4.24191251 93.41489592 7.81968389 93.38818359 11.37109375 C93.39344055 12.22502716 93.39869751 13.07896057 93.40411377 13.95877075 C93.4173319 16.78519917 93.40856932 19.61106572 93.3984375 22.4375 C93.40045771 24.39900826 93.40336871 26.3605158 93.40713501 28.32202148 C93.41156082 32.43448024 93.40511901 36.54674362 93.39111328 40.65917969 C93.37402129 45.93551687 93.3838611 51.21139629 93.40183067 56.48771667 C93.41266155 60.53856873 93.40922536 64.58931193 93.4014473 68.64016724 C93.39944336 70.58586684 93.40191131 72.53157627 93.40888596 74.4772644 C93.41648897 77.1947454 93.40491252 79.9114809 93.38818359 82.62890625 C93.39425629 83.43627228 93.40032898 84.24363831 93.40658569 85.07546997 C93.34409392 90.54372358 93.34409392 90.54372358 91.71228504 92.70753956 C88.71350745 94.97106538 85.00824709 94.38739899 81.39770508 94.34057617 C80.50524676 94.34093778 79.61278845 94.34129938 78.69328594 94.34167194 C75.8018069 94.33943113 72.91090662 94.31657794 70.01953125 94.29296875 C68.23547647 94.28855842 66.45141783 94.28549756 64.6673584 94.28381348 C58.0490131 94.2680788 51.43075088 94.22619521 44.8125 94.1875 C30.024375 94.125625 15.23625 94.06375 0 94 C0 62.98 0 31.96 0 0 Z M28 9 C25.39281781 12.46583501 25.79708062 16.04235344 25.875 20.25 C25.90207031 22.14492187 25.90207031 22.14492187 25.9296875 24.078125 C25.95289063 25.04234375 25.97609375 26.0065625 26 27 C25.04738281 26.96519531 24.09476563 26.93039063 23.11328125 26.89453125 C21.23189453 26.85392578 21.23189453 26.85392578 19.3125 26.8125 C18.07113281 26.77769531 16.82976562 26.74289063 15.55078125 26.70703125 C11.7377851 27.02163489 9.96275475 27.6244579 7 30 C3.7470999 35.0678107 4.6717116 41.13684045 4.6875 46.9375 C4.67138672 48.11763672 4.65527344 49.29777344 4.63867188 50.51367188 C4.63802734 51.65255859 4.63738281 52.79144531 4.63671875 53.96484375 C4.63373779 55.0024585 4.63075684 56.04007324 4.62768555 57.10913086 C5.05646312 60.43841298 6.02401553 62.30902507 8 65 C11.88780637 67.24270696 15.391095 67.21432131 19.8125 67.125 C20.97394531 67.10695312 22.13539063 67.08890625 23.33203125 67.0703125 C24.21246094 67.04710937 25.09289062 67.02390625 26 67 C25.97679687 67.88042969 25.95359375 68.76085937 25.9296875 69.66796875 C25.91164062 70.82941406 25.89359375 71.99085938 25.875 73.1875 C25.85179687 74.33605469 25.82859375 75.48460937 25.8046875 76.66796875 C26.00184947 80.03155196 26.32148795 82.09024409 28 85 C31.73709166 87.73769461 34.4039308 88.38335665 39 88.3984375 C40.134375 88.40230469 41.26875 88.40617187 42.4375 88.41015625 C43.613125 88.39855469 44.78875 88.38695312 46 88.375 C47.7634375 88.39240234 47.7634375 88.39240234 49.5625 88.41015625 C51.2640625 88.40435547 51.2640625 88.40435547 53 88.3984375 C54.546875 88.39336182 54.546875 88.39336182 56.125 88.38818359 C59.43548958 87.94120003 61.31932896 86.96378878 64 85 C66.24270696 81.11219363 66.21432131 77.608905 66.125 73.1875 C66.10695312 72.02605469 66.08890625 70.86460937 66.0703125 69.66796875 C66.04710937 68.78753906 66.02390625 67.90710938 66 67 C66.95261719 67.03480469 67.90523437 67.06960937 68.88671875 67.10546875 C70.14097656 67.13253906 71.39523438 67.15960938 72.6875 67.1875 C74.54955078 67.23970703 74.54955078 67.23970703 76.44921875 67.29296875 C80.2622149 66.97836511 82.03724525 66.3755421 85 64 C87.12502018 60.69585559 87.25717479 57.98022562 87.265625 54.09765625 C87.26820313 52.96005859 87.27078125 51.82246094 87.2734375 50.65039062 C87.26183594 48.87438477 87.26183594 48.87438477 87.25 47.0625 C87.25773437 45.88236328 87.26546875 44.70222656 87.2734375 43.48632812 C87.26957031 41.77799805 87.26957031 41.77799805 87.265625 40.03515625 C87.26224121 38.47873413 87.26224121 38.47873413 87.25878906 36.89086914 C86.98790419 33.86488064 86.37206056 31.70310599 85 29 C81.03381795 26.61314449 77.22632489 26.79016215 72.6875 26.875 C71.43324219 26.89304688 70.17898437 26.91109375 68.88671875 26.9296875 C67.45779297 26.96449219 67.45779297 26.96449219 66 27 C66.02320313 26.04738281 66.04640625 25.09476563 66.0703125 24.11328125 C66.08835938 22.85902344 66.10640625 21.60476562 66.125 20.3125 C66.14820313 19.07113281 66.17140625 17.82976562 66.1953125 16.55078125 C66.00541689 13.09847912 65.77707566 10.95292512 64 8 C58.25480197 5.09243906 52.29008509 5.67025744 46 5.6875 C44.824375 5.67138672 43.64875 5.65527344 42.4375 5.63867188 C41.303125 5.63802734 40.16875 5.63738281 39 5.63671875 C37.96875 5.63373779 36.9375 5.63075684 35.875 5.62768555 C32.5661501 6.05618386 30.69224177 7.06526773 28 9 Z " fill="#37A4DF" transform="translate(178,135)"/>
<path d="M0 0 C0.99 0 1.98 0 3 0 C7.52341365 15.18574582 7.21299873 29.37329402 -0.4375 43.55859375 C-8.26581507 55.79033604 -19.36230262 63.28644823 -33.37890625 66.5546875 C-46.43424945 68.77273389 -59.8363368 66.09092614 -71 59 C-79.90138334 52.25000841 -79.90138334 52.25000841 -81 47 C-80.27748047 46.58862793 -79.55496094 46.17725586 -78.81054688 45.75341797 C-65.2131785 38.00772818 -51.63653127 30.23220802 -38.13452148 22.32104492 C-32.54562006 19.05201194 -26.9405437 15.81337692 -21.31640625 12.60546875 C-20.66964935 12.23656525 -20.02289246 11.86766174 -19.35653687 11.48757935 C-16.18012586 9.67690119 -13.00207147 7.86916231 -9.82226562 6.06445312 C-8.68595703 5.41798828 -7.54964844 4.77152344 -6.37890625 4.10546875 C-5.3638501 3.52949951 -4.34879395 2.95353027 -3.30297852 2.36010742 C-1.11225619 1.19534713 -1.11225619 1.19534713 0 0 Z " fill="#5279D8" transform="translate(444,231)"/>
<path d="M0 0 C0.6290625 0.47566406 1.258125 0.95132813 1.90625 1.44140625 C2.875625 2.12203125 3.845 2.80265625 4.84375 3.50390625 C7.16879885 5.68804305 7.82341346 7.48424279 8.90625 10.44140625 C-2.71224346 17.80292134 -14.66924725 24.58428243 -26.59472656 31.43164062 C-31.17743889 34.06319605 -35.75686138 36.70045163 -40.33520508 39.33959961 C-42.52971177 40.6045505 -44.72485055 41.86840551 -46.9206543 43.13110352 C-51.78129699 45.93065143 -56.62798295 48.74746041 -61.43359375 51.640625 C-62.23015381 52.11846436 -63.02671387 52.59630371 -63.84741211 53.08862305 C-65.30176708 53.96446055 -66.75210249 54.84702229 -68.19750977 55.73754883 C-69.79487841 56.6990138 -71.44018402 57.58017397 -73.09375 58.44140625 C-73.75375 58.11140625 -74.41375 57.78140625 -75.09375 57.44140625 C-79.56051833 44.00174648 -78.85632295 30.38418191 -73.09375 17.44140625 C-66.89308803 5.83126471 -57.02447349 -2.77561743 -44.71875 -7.43359375 C-29.44391719 -11.46982331 -12.79818552 -9.25086236 0 0 Z " fill="#458EDB" transform="translate(430.09375,209.55859375)"/>
<path d="M0 0 C3.96 0 7.92 0 12 0 C12.04898438 0.88042969 12.09796875 1.76085937 12.1484375 2.66796875 C12.22320312 3.82941406 12.29796875 4.99085938 12.375 6.1875 C12.47941406 7.91033203 12.47941406 7.91033203 12.5859375 9.66796875 C12.98742644 12.89881844 13.37017722 15.18530606 15 18 C18.7634492 20.17919083 22.52725537 20.3652882 26.8125 20.625 C27.97394531 20.69976562 29.13539063 20.77453125 30.33203125 20.8515625 C31.21246094 20.90054688 32.09289062 20.94953125 33 21 C33 24.96 33 28.92 33 33 C32.11957031 33.04898438 31.23914063 33.09796875 30.33203125 33.1484375 C29.17058594 33.22320312 28.00914062 33.29796875 26.8125 33.375 C25.08966797 33.47941406 25.08966797 33.47941406 23.33203125 33.5859375 C20.12718016 33.98419567 17.82319697 34.44548657 15 36 C12.44945807 39.34856425 12.60209064 43.1623684 12.375 47.25 C12.30023438 48.51328125 12.22546875 49.7765625 12.1484375 51.078125 C12.09945312 52.04234375 12.05046875 53.0065625 12 54 C8.04 54 4.08 54 0 54 C-0.03738281 53.04738281 -0.07476562 52.09476563 -0.11328125 51.11328125 C-0.17902344 49.85902344 -0.24476563 48.60476562 -0.3125 47.3125 C-0.37050781 46.07113281 -0.42851562 44.82976562 -0.48828125 43.55078125 C-1.01559165 39.89181063 -1.7382369 37.89570144 -4 35 C-7.46712111 33.84429296 -10.5414956 33.67164707 -14.1875 33.4375 C-15.45980469 33.35371094 -16.73210937 33.26992187 -18.04296875 33.18359375 C-19.01878906 33.12300781 -19.99460938 33.06242187 -21 33 C-21 29.04 -21 25.08 -21 21 C-19.57107422 20.94392578 -19.57107422 20.94392578 -18.11328125 20.88671875 C-16.23189453 20.78810547 -16.23189453 20.78810547 -14.3125 20.6875 C-12.45044922 20.60048828 -12.45044922 20.60048828 -10.55078125 20.51171875 C-6.87384738 19.98181959 -4.87327738 19.32954029 -2 17 C-0.54408804 13.69310449 -0.68770963 9.82442331 -0.4375 6.25 C-0.35371094 5.07953125 -0.26992187 3.9090625 -0.18359375 2.703125 C-0.09271484 1.36507812 -0.09271484 1.36507812 0 0 Z " fill="#37A4DF" transform="translate(218,155)"/>
<path d="M0 0 C27.72 0 55.44 0 84 0 C84 10 84 10 82.46044922 12.59265137 C79.17949916 14.46931704 76.31348259 14.56077016 72.6328125 14.51757812 C71.8973822 14.5245874 71.1619519 14.53159668 70.40423584 14.53881836 C67.97743783 14.55639881 65.55180951 14.54477639 63.125 14.53125 C61.4363584 14.53394492 59.74771832 14.53782735 58.05908203 14.54284668 C54.52165946 14.54874176 50.98464117 14.54017873 47.44726562 14.52148438 C42.91411155 14.49869448 38.38190473 14.51181756 33.8487854 14.53577423 C30.36231353 14.55023214 26.87606605 14.54562633 23.3895874 14.53526306 C21.71824023 14.53259574 20.04687265 14.53586576 18.37554932 14.54518127 C16.03888025 14.55534719 13.70374256 14.53984749 11.3671875 14.51757812 C10.67719666 14.52567505 9.98720581 14.53377197 9.27630615 14.54211426 C6.23658903 14.48847501 4.18920433 14.1082227 1.53955078 12.59265137 C0 10 0 10 0 0 Z " fill="#10E5E8" transform="translate(200,45)"/>
<path d="M0 0 C0.7354303 -0.00700928 1.4708606 -0.01401855 2.22857666 -0.02124023 C4.65537467 -0.03882069 7.08100299 -0.02719827 9.5078125 -0.01367188 C11.1964541 -0.0163668 12.88509418 -0.02024922 14.57373047 -0.02526855 C18.11115304 -0.03116364 21.64817133 -0.02260061 25.18554688 -0.00390625 C29.71870095 0.01888364 34.25090777 0.00576057 38.7840271 -0.01819611 C42.27049897 -0.03265401 45.75674645 -0.0280482 49.2432251 -0.01768494 C50.91457227 -0.01501761 52.58593985 -0.01828764 54.25726318 -0.02760315 C56.59393225 -0.03776907 58.92906994 -0.02226936 61.265625 0 C61.95561584 -0.00809692 62.64560669 -0.01619385 63.35650635 -0.02453613 C66.43497896 0.029787 68.43698817 0.40059456 71.09326172 1.98742676 C72.6328125 4.51757812 72.6328125 4.51757812 72.6328125 13.51757812 C44.9128125 13.51757812 17.1928125 13.51757812 -11.3671875 13.51757812 C-11.3671875 4.51757812 -11.3671875 4.51757812 -9.82763672 1.98742676 C-6.55236314 0.03080991 -3.70852285 -0.04351888 0 0 Z " fill="#07F2EB" transform="translate(211.3671875,17.482421875)"/>
</svg>
